<?xml version="1.0" encoding="utf-8"?>
<!-- Generator: Adobe Illustrator 25.2.0, SVG Export Plug-In . SVG Version: 6.00 Build 0)  -->
<svg version="1.1" id="Capa_2_1_" xmlns="http://www.w3.org/2000/svg" xmlns:xlink="http://www.w3.org/1999/xlink" x="0px" y="0px"
	 viewBox="0 0 197.9 155.1" style="enable-background:new 0 0 197.9 155.1;" xml:space="preserve">
<style type="text/css">
	.st0{fill:#FFFFFF;}
	.st1{fill:#636464;}
	.st2{fill:#F68B1F;}
	.st3{fill:#444444;}
</style>
<g>
	<g>
		<path class="st0" d="M36.3,79.5c-0.3-9.8-6.9-13.2-15.6-13.2c-6.7,0-15,2.4-15,11C5.7,86,14,87,22.2,88.9
			c8.9,2.3,16.4,3.4,16.4,13.4c0,9.1-8.7,12.9-16.9,12.9c-10.9,0-18.9-5-18.7-17h1.3c0,11.5,7.2,15.7,17.4,15.7
			c7.5,0,15.6-3.3,15.6-11.6c0-9.7-9.4-10.5-16.8-12.3c-7.8-1.7-16.1-3.2-16.1-12.6c0-9.5,8.7-12.3,16.4-12.3
			c9.4,0,16.4,3.8,16.9,14.6h-1.4V79.5z"/>
		<path class="st0" d="M89.4,78.7c10,0,15.5,8.7,15.5,18.1c0,9.5-5.4,18.1-15.6,18.1c-10.1,0-15.5-8.6-15.5-18.1
			C73.8,87.4,79.3,78.7,89.4,78.7z M89.4,113.5c9.2,0,14.2-7.9,14.2-16.7c0-8.6-5-16.7-14.2-16.7c-9.3,0-14.2,8.1-14.2,16.7
			C75.2,105.5,80.1,113.5,89.4,113.5z"/>
		<path class="st0" d="M130.1,89.7c0-6.9-4.5-9.7-11.1-9.7c-9.7,0-10.3,6.1-10.3,7.3c0,3.4,1.5,5,3.8,6c2.4,1,5.1,1.5,8.9,2.5
			c5.4,1.4,11.1,2.7,11.1,9.3c0,6.9-6.5,9.6-12.5,9.6c-9.1,0-14-4-14-12.6h1.3c0,7.7,4.6,11.3,12.6,11.3c5,0,11.1-2.2,11.1-8.1
			c0-6.1-6-7.1-11.9-8.5c-3.3-0.8-5.8-1.5-7.7-2.3c-2.9-1.3-4.2-3.4-4.2-7.1c0-3.8,3.1-8.7,11.7-8.7c7.7,0,12.5,3.3,12.5,11
			L130.1,89.7L130.1,89.7z"/>
		<path class="st0" d="M135.1,97c0.2,9.3,3.8,16.4,13.6,16.4c7.2,0,12.3-3.9,13.5-11.4h1.3c-0.9,7.9-6.9,12.8-14.7,12.8
			c-10.7,0.2-15.1-7.9-15.1-18.1c0-11.5,7.3-18.1,15.1-18.1c10.7,0,15.4,8.9,15.1,18.3L135.1,97L135.1,97z M162.6,95.7
			c0-8.5-4.7-15.6-13.6-15.6c-7.5,0-13.4,6-13.9,15.6H162.6z"/>
		<path class="st0" d="M170.1,80.8v26.4c0,5.2,2.5,5.4,4.6,5.4c1.3,0,2.5,0,3-0.2v1.3c-0.8,0.1-1.2,0.2-3.3,0.2
			c-3.2,0-5.6-1.5-5.6-6.4V80.8h-6.4v-1.3h6.4V68.6h1.3v10.9h7.8v1.3H170.1z"/>
		<path class="st0" d="M183.4,80.8v26.4c0,5.2,2.5,5.4,4.6,5.4c1.3,0,2.5,0,3-0.2v1.3c-0.8,0.1-1.2,0.2-3.3,0.2
			c-3.2,0-5.6-1.5-5.6-6.4V80.8h-6.4v-1.3h6.4V68.6h1.3v10.9h7.8v1.3H183.4z"/>
		<path class="st0" d="M194.4,72.9H193v-6.8h1.3L194.4,72.9L194.4,72.9z M194.4,114H193V79.5h1.3L194.4,114L194.4,114z"/>
		<path class="st0" d="M57.8,78.7c-7,0-12,4.4-13.8,10.5h-0.1v-9.7h-1.3v41.1h1.3v-16.3H44c1.6,6.2,6.5,10.5,13.8,10.5
			c9.5,0,14.7-8.5,14.7-18.1C72.5,86.3,66.9,78.7,57.8,78.7z M57.8,113.5c-8.4,0-14-6-14-16.8c0-8.9,5.1-16.6,14-16.6
			s13.4,7.8,13.4,16.6C71.2,104.7,67.2,113.5,57.8,113.5z"/>
	</g>
	<g>
		<path class="st0" d="M4.8,27v24.3H3.5v-48h1.3v22.3h33.6V3.3h1.3v47.9h-1.3V27H4.8z"/>
		<path class="st0" d="M46.1,34.3c0.2,9.3,3.8,16.4,13.6,16.4c7.2,0,12.3-3.9,13.5-11.4h1.3c-0.9,7.9-6.9,12.8-14.7,12.8
			C49.2,52.3,44.7,44.2,44.7,34c0-11.5,7.3-18,15.1-18c10.7,0,15.4,8.9,15.1,18.3H46.1z M73.6,32.9c0-8.5-4.7-15.6-13.6-15.6
			c-7.5,0-13.4,6-13.9,15.6H73.6z"/>
		<path class="st0" d="M81.4,51.3H80V16.8h1.3v8.5h0.1c1.3-5.1,5.3-9.5,13.6-9.3v1.3c-9.5-0.5-13.7,6.9-13.7,14.4L81.4,51.3
			L81.4,51.3z"/>
		<path class="st0" d="M98.5,51.3h-1.3V16.8h1.3v8.5h0.1c1.3-5.1,5.3-9.5,13.6-9.3v1.3c-9.5-0.5-13.7,6.9-13.7,14.4V51.3z"/>
		<path class="st0" d="M113.6,34.3c0.2,9.3,3.8,16.4,13.6,16.4c7.2,0,12.3-3.9,13.5-11.4h1.3c-0.9,7.9-6.9,12.8-14.7,12.8
			c-10.7,0.2-15.1-7.9-15.1-18.1c0-11.5,7.3-18.1,15.1-18.1c10.7,0,15.4,8.9,15.1,18.3h-28.8V34.3z M141.1,32.9
			c0-8.5-4.7-15.6-13.6-15.6c-7.5,0-13.4,6-13.9,15.6H141.1z"/>
		<path class="st0" d="M148.9,51.3h-1.3V16.8h1.3v8.5h0.1c1.3-5.1,5.3-9.5,13.6-9.3v1.3c-9.5-0.5-13.7,6.9-13.7,14.4L148.9,51.3
			L148.9,51.3z"/>
		<path class="st0" d="M178.4,16c10,0,15.5,8.7,15.5,18.1c0,9.5-5.4,18.1-15.6,18.1c-10.1,0-15.5-8.6-15.5-18.1
			C162.8,24.6,168.3,16,178.4,16z M178.4,50.7c9.2,0,14.2-7.9,14.2-16.7c0-8.6-5-16.7-14.2-16.7c-9.3,0-14.2,8.1-14.2,16.7
			C164.2,42.8,169.1,50.7,178.4,50.7z"/>
	</g>
	<g>
		<rect x="2.4" y="59.7" class="st1" width="48.6" height="1.5"/>
		<rect x="94.2" y="59.7" class="st1" width="101.5" height="1.5"/>
	</g>
	<g>
		<rect x="2.4" y="127" class="st1" width="193.3" height="1.5"/>
	</g>
	<path class="st2" d="M87.9,64.1c-0.1,1.8-0.5,3.5-1.1,5.1s-1.5,3.2-2.7,4.8l3.9,4.8c-2.1,0.1-4.2,0.7-6.2,1.8L80,78.4
		c-1.4,1.3-2.7,2.2-4,2.7c-1.3,0.6-2.8,0.8-4.5,0.8c-2.3,0-4.2-0.4-5.9-1.2c-1.7-0.8-3-1.9-3.8-3.4c-0.9-1.5-1.3-3.1-1.3-4.9
		c0-1.1,0.1-2.1,0.4-3c0.3-0.9,0.7-1.7,1.3-2.5s1.2-1.5,2-2.1c0.7-0.6,1.8-1.4,3.3-2.2c-1-1.2-1.7-2.3-2.2-3.4
		c-0.5-1.1-0.7-2.3-0.7-3.4c0-1.4,0.4-2.6,1.1-3.8s1.8-2.1,3.1-2.7c1.4-0.6,2.8-1,4.3-1c1.6,0,3,0.3,4.3,0.9c1.3,0.6,2.3,1.5,3,2.7
		s1,2.4,1,3.7c0,1.6-0.4,3-1.3,4.3c-0.8,1.3-2.2,2.5-4.2,3.6l4.7,5.8c0.9-1.3,1.5-3.1,1.7-5.4h5.6V64.1z M70.8,66.8
		c-1.1,0.7-1.8,1.2-2.3,1.6c-0.6,0.5-1,1.1-1.3,1.7s-0.4,1.2-0.4,2c0,1.3,0.5,2.3,1.4,3.2c0.9,0.9,2.1,1.3,3.5,1.3
		c1.9,0,3.7-0.8,5.1-2.3L70.8,66.8z M72.6,59.9c1.2-0.8,2-1.5,2.4-2.1s0.6-1.3,0.6-2.1c0-0.7-0.2-1.3-0.7-1.8s-1.1-0.7-2-0.7
		c-0.8,0-1.5,0.2-2,0.7s-0.7,1.1-0.7,1.8c0,0.6,0.1,1.1,0.4,1.6C70.9,58,71.5,58.8,72.6,59.9z"/>
</g>
<g>
	<path class="st3" d="M7.6,140.1l4.5,11.4h-0.8l-1.4-3.7H4.4L3,151.5H2.2l4.6-11.4H7.6z M9.7,147.2l-2.4-6.5h0l-2.5,6.5H9.7z"/>
	<path class="st3" d="M28.4,140.1H33c0.7,0,1.3,0.1,1.7,0.3s0.8,0.4,1.1,0.7s0.5,0.6,0.6,1s0.2,0.7,0.2,1.1c0,0.3-0.1,0.6-0.2,0.9
		s-0.3,0.5-0.5,0.7c-0.2,0.2-0.4,0.4-0.7,0.5c-0.3,0.1-0.6,0.2-0.9,0.3l0,0c0.1,0,0.3,0,0.5,0.1c0.3,0.1,0.6,0.2,0.9,0.4
		c0.3,0.2,0.6,0.5,0.8,0.9s0.4,0.8,0.4,1.4c0,0.5-0.1,1-0.3,1.4c-0.2,0.4-0.5,0.7-0.8,1c-0.3,0.3-0.8,0.5-1.3,0.6s-1,0.2-1.6,0.2
		h-4.6V140.1z M29.1,145.3H33c1,0,1.7-0.2,2.2-0.6c0.5-0.4,0.7-1,0.7-1.7c0-0.4-0.1-0.8-0.2-1c-0.2-0.3-0.4-0.5-0.6-0.7
		c-0.3-0.2-0.6-0.3-0.9-0.4c-0.3-0.1-0.7-0.1-1.1-0.1h-3.9V145.3z M29.1,150.9H33c1,0,1.8-0.2,2.4-0.7s0.9-1.1,0.9-1.9
		c0-0.5-0.1-0.9-0.3-1.2c-0.2-0.3-0.5-0.6-0.8-0.7c-0.3-0.2-0.7-0.3-1.1-0.4c-0.4-0.1-0.8-0.1-1.1-0.1h-3.9V150.9z"/>
	<path class="st3" d="M64,148.1c-0.2,0.7-0.6,1.4-1.1,1.9c-0.5,0.5-1,1-1.7,1.3c-0.7,0.3-1.4,0.5-2.3,0.5c-0.9,0-1.6-0.2-2.3-0.5
		c-0.7-0.3-1.2-0.7-1.7-1.3c-0.5-0.5-0.8-1.2-1.1-1.9c-0.2-0.7-0.4-1.5-0.4-2.3s0.1-1.6,0.4-2.3c0.2-0.7,0.6-1.4,1.1-1.9
		c0.5-0.5,1-1,1.7-1.3c0.7-0.3,1.4-0.5,2.3-0.5c0.9,0,1.6,0.2,2.3,0.5c0.7,0.3,1.2,0.7,1.7,1.3c0.5,0.5,0.8,1.2,1.1,1.9
		c0.2,0.7,0.4,1.5,0.4,2.3S64.2,147.4,64,148.1z M54.5,147.9c0.2,0.7,0.5,1.2,0.9,1.7c0.4,0.5,0.9,0.9,1.5,1.2
		c0.6,0.3,1.3,0.4,2,0.4s1.4-0.1,2-0.4c0.6-0.3,1.1-0.7,1.5-1.2c0.4-0.5,0.7-1.1,0.9-1.7s0.3-1.3,0.3-2.1s-0.1-1.4-0.3-2.1
		s-0.5-1.2-0.9-1.7c-0.4-0.5-0.9-0.9-1.5-1.2c-0.6-0.3-1.2-0.4-2-0.4s-1.4,0.1-2,0.4c-0.6,0.3-1.1,0.7-1.5,1.2
		c-0.4,0.5-0.7,1.1-0.9,1.7s-0.3,1.3-0.3,2.1S54.3,147.2,54.5,147.9z"/>
	<path class="st3" d="M91.3,145.9v5.6h-0.6v-2.4h0c-0.1,0.4-0.3,0.8-0.6,1.1s-0.6,0.6-1,0.8s-0.8,0.4-1.3,0.5
		c-0.5,0.1-0.9,0.2-1.4,0.2c-0.9,0-1.6-0.2-2.3-0.5c-0.7-0.3-1.2-0.7-1.7-1.3s-0.8-1.2-1-1.9c-0.2-0.7-0.4-1.5-0.4-2.3
		c0-0.8,0.1-1.6,0.4-2.3c0.2-0.7,0.6-1.4,1-1.9c0.5-0.6,1-1,1.7-1.3s1.4-0.5,2.3-0.5c0.6,0,1.1,0.1,1.7,0.3c0.5,0.2,1,0.4,1.4,0.8
		c0.4,0.3,0.8,0.7,1.1,1.2c0.3,0.5,0.5,1,0.6,1.6h-0.7c-0.3-1-0.8-1.8-1.4-2.3c-0.7-0.6-1.6-0.9-2.6-0.9c-0.8,0-1.4,0.1-2,0.4
		c-0.6,0.3-1.1,0.7-1.5,1.2c-0.4,0.5-0.7,1.1-0.9,1.7s-0.3,1.3-0.3,2.1c0,0.7,0.1,1.4,0.3,2.1s0.5,1.2,0.9,1.7
		c0.4,0.5,0.9,0.9,1.5,1.1c0.6,0.3,1.3,0.4,2.1,0.4c0.7,0,1.3-0.1,1.8-0.3c0.5-0.2,1-0.5,1.4-0.9s0.7-0.9,0.9-1.5
		c0.2-0.6,0.3-1.2,0.2-1.9h-4.2v-0.6H91.3z"/>
	<path class="st3" d="M112.9,140.1l4.5,11.4h-0.8l-1.4-3.7h-5.5l-1.5,3.7h-0.8l4.6-11.4H112.9z M115,147.2l-2.4-6.5h0l-2.5,6.5H115z
		"/>
	<path class="st3" d="M133.7,140.1h3.7c1,0,1.9,0.2,2.6,0.5c0.7,0.3,1.2,0.7,1.6,1.3s0.7,1.1,0.9,1.8c0.2,0.7,0.2,1.4,0.2,2.1
		c0,0.8-0.1,1.6-0.3,2.3s-0.5,1.3-1,1.8c-0.4,0.5-1,0.9-1.7,1.2c-0.7,0.3-1.5,0.4-2.4,0.4h-3.7V140.1z M134.4,150.9h3.1
		c0.5,0,1.1-0.1,1.6-0.2c0.5-0.2,1-0.4,1.5-0.8c0.4-0.4,0.8-0.9,1.1-1.6c0.3-0.7,0.4-1.5,0.4-2.5c0-0.8-0.1-1.4-0.2-2
		c-0.2-0.6-0.4-1-0.6-1.4c-0.3-0.4-0.5-0.7-0.9-0.9c-0.3-0.2-0.7-0.4-1-0.5c-0.3-0.1-0.7-0.2-1-0.2s-0.7-0.1-0.9-0.1h-2.9V150.9z"/>
	<path class="st3" d="M169.9,148.1c-0.2,0.7-0.6,1.4-1.1,1.9s-1,1-1.7,1.3c-0.7,0.3-1.4,0.5-2.3,0.5s-1.6-0.2-2.3-0.5
		c-0.7-0.3-1.2-0.7-1.7-1.3s-0.8-1.2-1.1-1.9c-0.2-0.7-0.4-1.5-0.4-2.3s0.1-1.6,0.4-2.3c0.2-0.7,0.6-1.4,1.1-1.9
		c0.5-0.5,1-1,1.7-1.3c0.7-0.3,1.4-0.5,2.3-0.5s1.6,0.2,2.3,0.5c0.7,0.3,1.2,0.7,1.7,1.3c0.5,0.5,0.8,1.2,1.1,1.9
		c0.2,0.7,0.4,1.5,0.4,2.3S170.1,147.4,169.9,148.1z M160.4,147.9c0.2,0.7,0.5,1.2,0.9,1.7s0.9,0.9,1.5,1.2c0.6,0.3,1.3,0.4,2,0.4
		c0.7,0,1.4-0.1,2-0.4c0.6-0.3,1.1-0.7,1.5-1.2s0.7-1.1,0.9-1.7c0.2-0.7,0.3-1.3,0.3-2.1s-0.1-1.4-0.3-2.1c-0.2-0.7-0.5-1.2-0.9-1.7
		s-0.9-0.9-1.5-1.2s-1.2-0.4-2-0.4c-0.7,0-1.4,0.1-2,0.4c-0.6,0.3-1.1,0.7-1.5,1.2s-0.7,1.1-0.9,1.7c-0.2,0.7-0.3,1.3-0.3,2.1
		S160.2,147.2,160.4,147.9z"/>
	<path class="st3" d="M194.7,143.3c0-0.5-0.1-0.9-0.3-1.3c-0.2-0.4-0.4-0.7-0.8-0.9c-0.3-0.2-0.7-0.4-1.1-0.6
		c-0.4-0.1-0.9-0.2-1.4-0.2c-0.3,0-0.7,0-1,0.1c-0.4,0.1-0.7,0.2-1,0.4s-0.6,0.4-0.8,0.8c-0.2,0.3-0.3,0.7-0.3,1.2
		c0,0.5,0.1,0.8,0.3,1.1s0.5,0.5,0.9,0.7s0.8,0.3,1.2,0.4s0.9,0.2,1.4,0.3c0.5,0.1,1,0.2,1.4,0.3c0.5,0.1,0.9,0.3,1.2,0.5
		c0.4,0.2,0.7,0.5,0.9,0.9s0.3,0.8,0.3,1.4c0,0.6-0.1,1.1-0.4,1.5c-0.3,0.4-0.6,0.7-1,1c-0.4,0.3-0.8,0.4-1.3,0.6
		c-0.5,0.1-0.9,0.2-1.4,0.2c-0.7,0-1.3-0.1-1.9-0.2c-0.6-0.1-1.1-0.4-1.5-0.7c-0.4-0.3-0.8-0.7-1-1.3c-0.3-0.5-0.4-1.1-0.4-1.9h0.7
		c0,0.6,0.1,1.2,0.3,1.6c0.2,0.4,0.5,0.8,0.9,1.1c0.4,0.3,0.8,0.5,1.3,0.6c0.5,0.1,1,0.2,1.6,0.2c0.3,0,0.7,0,1.1-0.1
		c0.4-0.1,0.7-0.2,1.1-0.4c0.3-0.2,0.6-0.5,0.8-0.8c0.2-0.3,0.3-0.7,0.3-1.2c0-0.5-0.1-0.9-0.3-1.2s-0.5-0.5-0.9-0.7
		c-0.4-0.2-0.8-0.3-1.2-0.4c-0.5-0.1-0.9-0.2-1.4-0.3c-0.5-0.1-1-0.2-1.4-0.3s-0.9-0.3-1.2-0.5s-0.7-0.5-0.9-0.8
		c-0.2-0.3-0.3-0.8-0.3-1.3s0.1-1,0.3-1.4s0.5-0.7,0.9-0.9s0.8-0.4,1.2-0.5c0.5-0.1,0.9-0.2,1.4-0.2c0.6,0,1.2,0.1,1.7,0.2
		c0.5,0.1,1,0.3,1.4,0.6c0.4,0.3,0.7,0.6,0.9,1.1c0.2,0.4,0.4,1,0.4,1.6H194.7z"/>
</g>
</svg>
