<?xml version="1.0" encoding="utf-8"?>
<!-- Generator: Adobe Illustrator 25.2.0, SVG Export Plug-In . SVG Version: 6.00 Build 0)  -->
<svg version="1.1" id="Capa_2_1_" xmlns="http://www.w3.org/2000/svg" xmlns:xlink="http://www.w3.org/1999/xlink" x="0px" y="0px"
	 viewBox="0 0 197.9 155.1" style="enable-background:new 0 0 197.9 155.1;" xml:space="preserve">
<style type="text/css">
	.st0{fill:#FFFFFF;}
	.st1{fill:#636464;}
	.st2{fill:#F68B1F;}
	.st3{fill:#5E5E5E;}
</style>
<g>
	<g>
		<path class="st0" d="M36.3,79.5c-0.3-9.8-6.9-13.2-15.6-13.2c-6.7,0-15,2.4-15,11C5.7,86,14,87,22.2,88.9
			c8.9,2.3,16.4,3.4,16.4,13.4c0,9.1-8.7,12.9-16.9,12.9c-10.9,0-18.9-5-18.7-17h1.3c0,11.5,7.2,15.7,17.4,15.7
			c7.5,0,15.6-3.3,15.6-11.6c0-9.7-9.4-10.5-16.8-12.3c-7.8-1.7-16.1-3.2-16.1-12.6c0-9.5,8.7-12.3,16.4-12.3
			c9.4,0,16.4,3.8,16.9,14.6h-1.4C36.3,79.7,36.3,79.5,36.3,79.5z"/>
		<path class="st0" d="M89.4,78.7c10,0,15.5,8.7,15.5,18.1c0,9.5-5.4,18.1-15.6,18.1c-10.1,0-15.5-8.6-15.5-18.1
			C73.8,87.4,79.3,78.7,89.4,78.7z M89.4,113.5c9.2,0,14.2-7.9,14.2-16.7c0-8.6-5-16.7-14.2-16.7c-9.3,0-14.2,8.1-14.2,16.7
			C75.2,105.5,80.1,113.5,89.4,113.5z"/>
		<path class="st0" d="M130.1,89.7c0-6.9-4.5-9.7-11.1-9.7c-9.7,0-10.3,6.1-10.3,7.3c0,3.4,1.5,5,3.8,6c2.4,1,5.1,1.5,8.9,2.5
			c5.4,1.4,11.1,2.7,11.1,9.3c0,6.9-6.5,9.6-12.5,9.6c-9.1,0-14-4-14-12.6h1.3c0,7.7,4.6,11.3,12.6,11.3c5,0,11.1-2.2,11.1-8.1
			c0-6.1-6-7.1-11.9-8.5c-3.3-0.8-5.8-1.5-7.7-2.3c-2.9-1.3-4.2-3.4-4.2-7.1c0-3.8,3.1-8.7,11.7-8.7c7.7,0,12.5,3.3,12.5,11
			L130.1,89.7L130.1,89.7z"/>
		<path class="st0" d="M135.1,97c0.2,9.3,3.8,16.4,13.6,16.4c7.2,0,12.3-3.9,13.5-11.4h1.3c-0.9,7.9-6.9,12.8-14.7,12.8
			c-10.7,0.2-15.1-7.9-15.1-18.1c0-11.5,7.3-18.1,15.1-18.1c10.7,0,15.4,8.9,15.1,18.3L135.1,97L135.1,97z M162.6,95.7
			c0-8.5-4.7-15.6-13.6-15.6c-7.5,0-13.4,6-13.9,15.6H162.6z"/>
		<path class="st0" d="M170.1,80.8v26.4c0,5.2,2.5,5.4,4.6,5.4c1.3,0,2.5,0,3-0.2v1.3c-0.8,0.1-1.2,0.2-3.3,0.2
			c-3.2,0-5.6-1.5-5.6-6.4V80.8h-6.4v-1.3h6.4V68.6h1.3v10.9h7.8v1.3H170.1z"/>
		<path class="st0" d="M183.4,80.8v26.4c0,5.2,2.5,5.4,4.6,5.4c1.3,0,2.5,0,3-0.2v1.3c-0.8,0.1-1.2,0.2-3.3,0.2
			c-3.2,0-5.6-1.5-5.6-6.4V80.8h-6.4v-1.3h6.4V68.6h1.3v10.9h7.8v1.3H183.4z"/>
		<path class="st0" d="M194.4,72.9H193v-6.8h1.3L194.4,72.9L194.4,72.9z M194.4,114H193V79.5h1.3L194.4,114L194.4,114z"/>
		<path class="st0" d="M57.8,78.7c-7,0-12,4.4-13.8,10.5h-0.1v-9.7h-1.3v41.1h1.3v-16.3H44c1.6,6.2,6.5,10.5,13.8,10.5
			c9.5,0,14.7-8.5,14.7-18.1C72.5,86.3,66.9,78.7,57.8,78.7z M57.8,113.5c-8.4,0-14-6-14-16.8c0-8.9,5.1-16.6,14-16.6
			s13.4,7.8,13.4,16.6C71.2,104.7,67.2,113.5,57.8,113.5z"/>
	</g>
	<g>
		<path class="st0" d="M4.8,27v24.3H3.5v-48h1.3v22.3h33.6V3.3h1.3v47.9h-1.3V27H4.8z"/>
		<path class="st0" d="M46.1,34.3c0.2,9.3,3.8,16.4,13.6,16.4c7.2,0,12.3-3.9,13.5-11.4h1.3c-0.9,7.9-6.9,12.8-14.7,12.8
			C49.2,52.3,44.7,44.2,44.7,34c0-11.5,7.3-18,15.1-18c10.7,0,15.4,8.9,15.1,18.3H46.1z M73.6,32.9c0-8.5-4.7-15.6-13.6-15.6
			c-7.5,0-13.4,6-13.9,15.6H73.6z"/>
		<path class="st0" d="M81.4,51.3H80V16.8h1.3v8.5h0.1c1.3-5.1,5.3-9.5,13.6-9.3v1.3c-9.5-0.5-13.7,6.9-13.7,14.4L81.4,51.3
			L81.4,51.3z"/>
		<path class="st0" d="M98.5,51.3h-1.3V16.8h1.3v8.5h0.1c1.3-5.1,5.3-9.5,13.6-9.3v1.3c-9.5-0.5-13.7,6.9-13.7,14.4V51.3z"/>
		<path class="st0" d="M113.6,34.3c0.2,9.3,3.8,16.4,13.6,16.4c7.2,0,12.3-3.9,13.5-11.4h1.3c-0.9,7.9-6.9,12.8-14.7,12.8
			c-10.7,0.2-15.1-7.9-15.1-18.1c0-11.5,7.3-18.1,15.1-18.1c10.7,0,15.4,8.9,15.1,18.3h-28.8C113.6,34.2,113.6,34.3,113.6,34.3z
			 M141.1,32.9c0-8.5-4.7-15.6-13.6-15.6c-7.5,0-13.4,6-13.9,15.6H141.1z"/>
		<path class="st0" d="M148.9,51.3h-1.3V16.8h1.3v8.5h0.1c1.3-5.1,5.3-9.5,13.6-9.3v1.3c-9.5-0.5-13.7,6.9-13.7,14.4L148.9,51.3
			L148.9,51.3z"/>
		<path class="st0" d="M178.4,16c10,0,15.5,8.7,15.5,18.1c0,9.5-5.4,18.1-15.6,18.1c-10.1,0-15.5-8.6-15.5-18.1
			C162.8,24.6,168.3,16,178.4,16z M178.4,50.7c9.2,0,14.2-7.9,14.2-16.7c0-8.6-5-16.7-14.2-16.7c-9.3,0-14.2,8.1-14.2,16.7
			C164.2,42.8,169.1,50.7,178.4,50.7z"/>
	</g>
	<g>
		<rect x="2.4" y="59.7" class="st1" width="48.6" height="1.5"/>
		<rect x="94.2" y="59.7" class="st1" width="101.5" height="1.5"/>
	</g>
	<g>
		<rect x="2.4" y="127" class="st1" width="193.3" height="1.5"/>
	</g>
	<path class="st2" d="M87.9,64.1c-0.1,1.8-0.5,3.5-1.1,5.1s-1.5,3.2-2.7,4.8l3.9,4.8c-2.1,0.1-4.2,0.7-6.2,1.8L80,78.4
		c-1.4,1.3-2.7,2.2-4,2.7c-1.3,0.6-2.8,0.8-4.5,0.8c-2.3,0-4.2-0.4-5.9-1.2c-1.7-0.8-3-1.9-3.8-3.4c-0.9-1.5-1.3-3.1-1.3-4.9
		c0-1.1,0.1-2.1,0.4-3c0.3-0.9,0.7-1.7,1.3-2.5s1.2-1.5,2-2.1c0.7-0.6,1.8-1.4,3.3-2.2c-1-1.2-1.7-2.3-2.2-3.4
		c-0.5-1.1-0.7-2.3-0.7-3.4c0-1.4,0.4-2.6,1.1-3.8s1.8-2.1,3.1-2.7c1.4-0.6,2.8-1,4.3-1c1.6,0,3,0.3,4.3,0.9c1.3,0.6,2.3,1.5,3,2.7
		s1,2.4,1,3.7c0,1.6-0.4,3-1.3,4.3c-0.8,1.3-2.2,2.5-4.2,3.6l4.7,5.8c0.9-1.3,1.5-3.1,1.7-5.4h5.6V64.1z M70.8,66.8
		c-1.1,0.7-1.8,1.2-2.3,1.6c-0.6,0.5-1,1.1-1.3,1.7s-0.4,1.2-0.4,2c0,1.3,0.5,2.3,1.4,3.2c0.9,0.9,2.1,1.3,3.5,1.3
		c1.9,0,3.7-0.8,5.1-2.3L70.8,66.8z M72.6,59.9c1.2-0.8,2-1.5,2.4-2.1s0.6-1.3,0.6-2.1c0-0.7-0.2-1.3-0.7-1.8s-1.1-0.7-2-0.7
		c-0.8,0-1.5,0.2-2,0.7s-0.7,1.1-0.7,1.8c0,0.6,0.1,1.1,0.4,1.6C70.9,58,71.5,58.8,72.6,59.9z"/>
</g>
<g>
	<path class="st3" d="M2.2,151.4l4.5-11.5h1.2l4.4,11.5h-1.1l-1.3-3.6H4.7l-1.4,3.6H2.2z M5,146.9h4.5l-2.3-6L5,146.9z"/>
	<path class="st3" d="M28.7,151.4v-11.5h4.2c2.9,0,3.8,1.3,3.8,2.7c0,2.2-1.5,2.7-1.5,2.7c3,1.3,2.5,6.1-1.8,6h-4.7V151.4z
		 M29.8,145h2.8c1.8,0,3.2-0.3,3.2-2.1c0-1.5-1-2.2-3.5-2.2h-2.5C29.8,140.7,29.8,145,29.8,145z M29.8,150.5h3.4
		c4.2-0.1,3.3-4.6,0.5-4.6h-3.9C29.8,145.9,29.8,150.5,29.8,150.5z"/>
	<path class="st3" d="M86.3,146.4v-0.9h4.9v6h-0.9v-2c-0.2,0.3-0.4,0.7-0.7,0.9c-1.5,1.5-4.3,1.1-5.4,0.6c-4.3-2-3.9-9.1-0.2-10.9
		c0.7-0.3,1.5-0.5,2.4-0.5c3.8,0,4.5,3,4.6,3.6h-0.9c-0.6-2.2-2.2-2.8-3.6-2.8c-0.8,0-1.4,0.1-2,0.4c-3.6,1.7-3.4,9.6,1.9,9.7
		c3.9,0.1,4.1-3.8,4.1-4.2L86.3,146.4L86.3,146.4z"/>
	<path class="st3" d="M107.5,151.4l4.5-11.5h1.2l4.4,11.5h-1.1l-1.3-3.6H110l-1.4,3.6H107.5z M110.4,146.9h4.5l-2.3-6L110.4,146.9z"
		/>
	<path class="st3" d="M134.1,151.4v-11.5h3.9c5.5,0,5.4,5.4,5.4,5.8c0,0.4,0,5.9-5.5,5.9h-3.8V151.4z M135.1,150.5h2.6
		c4.7-0.1,4.6-4.4,4.6-4.8s0-5.1-4.6-4.9h-2.6V150.5z"/>
	<path class="st3" d="M191.3,150.9c2.8,0,2.9-2.1,2.9-2.4c0-1.3-0.7-2-3.4-2.6c-1.4-0.3-3.6-0.8-3.6-3.2c0-3,3-3.2,3.8-3.2
		c4.1,0,3.8,3,3.8,3.4h-1c-0.1-1.3-0.2-2.4-2.8-2.4c-3.1,0-2.9,2.2-2.8,2.5c0.2,1.8,3.2,2.1,3.7,2.2s3.3,0.6,3.3,3.3
		c0,1.1-0.6,3.4-3.9,3.4c-4.3,0-4.2-3.1-4.2-3.7h1C188.1,148.2,187.7,150.9,191.3,150.9z"/>
</g>
<path class="st3" d="M165.2,139.7c-3,0-5.3,1.8-5.3,6c0,4.1,2.4,6,5.3,6s5.3-1.7,5.3-6C170.6,141.3,168.2,139.7,165.2,139.7z
	 M165.3,150.9c-2.4,0-4.4-1.8-4.4-5.2c0-3.5,2-5.2,4.4-5.2s4.4,1.7,4.4,5.2C169.7,149.3,167.7,150.9,165.3,150.9z"/>
<path class="st3" d="M59,139.7c-3,0-5.3,1.8-5.3,6c0,4.1,2.4,6,5.3,6s5.3-1.7,5.3-6C64.3,141.3,62,139.7,59,139.7z M59.1,150.9
	c-2.4,0-4.4-1.8-4.4-5.2c0-3.5,2-5.2,4.4-5.2s4.4,1.7,4.4,5.2C63.5,149.3,61.5,150.9,59.1,150.9z"/>
</svg>
